<?xml version="1.0" ?><svg viewBox="0 0 22.494 20.653" xmlns="http://www.w3.org/2000/svg"><g data-name="Layer 2" id="Layer_2"><g data-name="Layer 1" id="Layer_1-2"><path d="M17.61,18.405a.341.341,0,0,1,0-.681A.341.341,0,0,1,17.61,18.405Zm-.544-4.849H15.338a.341.341,0,0,0,0,.681h1.728A.341.341,0,0,0,17.066,13.556Zm5.428-.036v3.636a1.25,1.25,0,0,1-1.249,1.249H20.2a2.614,2.614,0,0,1-5.176,0H8.382a2.614,2.614,0,0,1-5.177,0H1.25A1.251,1.251,0,0,1,0,17.156V12.611c.006-.524.808-.294,1.364-.341V.341A.341.341,0,0,1,1.705,0h9.088a.341.341,0,0,1,.341.341V12.27h1.591V5.34A.343.343,0,0,1,13.066,5h3.045a2.61,2.61,0,0,1,2.4,1.584l2.053,4.791A2.16,2.16,0,0,1,22.494,13.52ZM10.452,1.374l-3.779,5.1,3.779,5.1Zm-4.2,5.674L2.381,12.27h7.736ZM2.381.682,6.249,5.9,10.117.682Zm-.336,10.9,3.78-5.1-3.78-5.1Zm3.748,4.555a1.932,1.932,0,0,0,0,3.863A1.932,1.932,0,0,0,5.793,16.133Zm6.932,1.591V15.679H8.975a.341.341,0,1,1,0-.682h3.75V12.952H.681V15H2.612a.341.341,0,1,1,0,.682H.681v1.477a.569.569,0,0,0,.569.568H3.205a2.614,2.614,0,0,1,5.177,0Zm2.954-7.749a1.388,1.388,0,0,0,1.387,1.386h2.753L17.886,6.852a2.067,2.067,0,0,0-2.207-1.171Zm1.931,6.158a1.932,1.932,0,0,0,0,3.863A1.932,1.932,0,0,0,17.61,16.133Zm4.2,0H20.648a.341.341,0,1,1,0-.682h1.165V14.237H20.648a.341.341,0,1,1,0-.681h1.165a1.48,1.48,0,0,0-1.477-1.513h-3.27A2.071,2.071,0,0,1,15,9.975V5.681H13.406V17.724h1.615a2.614,2.614,0,0,1,5.176,0h1.047C22.048,17.7,21.766,16.637,21.813,16.133ZM5.793,17.724a.341.341,0,0,0,0,.681A.341.341,0,0,0,5.793,17.724Z" data-name="special delivery" id="special_delivery"/></g></g></svg>