<?xml version="1.0" encoding="iso-8859-1"?>
<!-- Generator: Adobe Illustrator 20.0.0, SVG Export Plug-In . SVG Version: 6.00 Build 0)  -->
<svg version="1.1" id="Layer_1_1_" xmlns="http://www.w3.org/2000/svg" xmlns:xlink="http://www.w3.org/1999/xlink" x="0px" y="0px"
	 viewBox="0 0 64 64" style="enable-background:new 0 0 64 64;" xml:space="preserve">
<g id="Guide">
	<g>
	</g>
	<g>
	</g>
	<g>
	</g>
	<g>
	</g>
	<g>
	</g>
	<g>
	</g>
	<g>
	</g>
	<g>
	</g>
	<g>
	</g>
	<g>
	</g>
	<g>
	</g>
	<g>
	</g>
	<g>
	</g>
	<g>
	</g>
	<g>
	</g>
	<g>
	</g>
	<g>
	</g>
	<g>
	</g>
	<g>
	</g>
	<g>
	</g>
	<g>
	</g>
	<g>
	</g>
	<g>
	</g>
	<g>
	</g>
	<g>
	</g>
	<g>
	</g>
	<g>
	</g>
	<g>
	</g>
	<g>
	</g>
	<g>
	</g>
	<g>
	</g>
	<g>
	</g>
	<g>
	</g>
	<g>
	</g>
	<g>
	</g>
	<g>
	</g>
</g>
<path d="M27,35H5c-0.553,0-1,0.448-1,1v23c0,0.552,0.447,1,1,1h22c0.553,0,1-0.448,1-1V36C28,35.448,27.553,35,27,35z M6,37h9v21H6
	V37z M26,58h-9V37h9V58z"/>
<path d="M38,28V5c0-0.552-0.447-1-1-1H15c-0.553,0-1,0.448-1,1v23c0,0.552,0.447,1,1,1h22C37.553,29,38,28.552,38,28z M16,6h9v21h-9
	V6z M36,27h-9V6h9V27z"/>
<path d="M34,36v23c0,0.552,0.447,1,1,1h22c0.553,0,1-0.448,1-1V36c0-0.552-0.447-1-1-1H35C34.447,35,34,35.448,34,36z M56,58h-9V37
	h9V58z M36,37h9v21h-9V37z"/>
<path d="M36,0H15c-2.757,0-5,2.243-5,5v23c0,1.13,0.391,2.162,1.026,3H5c-2.757,0-5,2.243-5,5v23c0,2.757,2.243,5,5,5h22
	c1.641,0,3.088-0.806,4-2.031C31.912,63.194,33.359,64,35,64h20h2h7v-2h-3.026C61.609,61.162,62,60.13,62,59V36
	c0-1.13-0.391-2.162-1.026-3H64v-2h-2V2h2V0H37H36z M56,31h-2V2h2V31z M52,31h-2V2h2V31z M48,31h-2V2h2V31z M44,31h-3.026
	C41.609,30.162,42,29.13,42,28V5c0-1.13-0.391-2.162-1.026-3H44V31z M12,28V5c0-1.654,1.346-3,3-3h21h1c1.654,0,3,1.346,3,3v23
	c0,1.654-1.346,3-3,3h-2h-8H15C13.346,31,12,29.654,12,28z M31.026,33c-0.008,0.011-0.018,0.02-0.026,0.031
	c-0.008-0.011-0.017-0.02-0.026-0.031H31.026z M27,62H5c-1.654,0-3-1.346-3-3V36c0-1.654,1.346-3,3-3h10h12c1.654,0,3,1.346,3,3v23
	C30,60.654,28.654,62,27,62z M60,36v23c0,1.654-1.346,3-3,3h-2H35c-1.654,0-3-1.346-3-3V36c0-1.654,1.346-3,3-3h2h17h3
	C58.654,33,60,34.346,60,36z M60,31h-2V2h2V31z"/>
<rect x="21" y="15" width="2" height="3"/>
<rect x="29" y="15" width="2" height="3"/>
<rect x="11" y="46" width="2" height="3"/>
<rect x="19" y="46" width="2" height="3"/>
<rect x="41" y="46" width="2" height="3"/>
<rect x="49" y="46" width="2" height="3"/>
</svg>
