<?xml version="1.0" ?><svg xmlns="http://www.w3.org/2000/svg" xmlns:xlink="http://www.w3.org/1999/xlink" version="1.1" id="Layer_1" viewBox="0 0 512 512" style="enable-background:new 0 0 512 512;" xml:space="preserve"><g><path d="M380.957,281.962c-3.906-3.904-10.236-3.904-14.142,0c-5.848,5.849-15.365,5.848-21.213,0.001   c-5.849-5.85-5.849-15.366,0-21.214c11.044-11.046,11.561-28.297,2.196-39.974l42.352-42.352   c32.325,10.933,67.938,2.771,92.37-21.671c22.646-22.635,31.578-55.944,23.313-86.929c-1.988-7.455-11.308-9.919-16.731-4.495   l-20.722,20.711c-11.693,11.695-30.723,11.695-42.418,0c-11.695-11.694-11.695-30.724,0.002-42.42l20.709-20.72   c5.451-5.453,2.922-14.754-4.495-16.731c-30.979-8.266-64.293,0.667-86.926,23.31c-24.446,24.436-32.61,60.045-21.674,92.373   l-84.645,84.655L131.816,89.39l4.284-17.134c0.948-3.794-0.401-7.792-3.455-10.234L61.935,5.453   C57.956,2.27,52.22,2.588,48.617,6.19L6.19,48.616c-3.603,3.604-3.921,9.339-0.738,13.318l56.569,70.711   c2.443,3.054,6.443,4.403,10.234,3.454l17.135-4.283l117.115,117.115l-84.654,84.645C53.96,310.607-12.348,372.77,6.168,442.177   c1.987,7.45,11.302,9.921,16.731,4.495l20.722-20.711c11.724-11.725,30.696-11.723,42.417,0   c11.695,11.694,11.695,30.724-0.002,42.42l-20.71,20.72c-5.453,5.456-2.918,14.754,4.495,16.731   c69.292,18.488,131.578-47.747,108.601-115.683l42.353-42.353c11.787,9.475,29.029,8.747,39.973-2.195   c5.848-5.849,15.365-5.848,21.213-0.001c5.849,5.85,5.849,15.366,0,21.214c-3.905,3.905-3.905,10.237,0,14.142l113.137,113.137   c19.497,19.495,51.214,19.495,70.711,0l28.284-28.284c19.495-19.495,19.495-51.216,0-70.711L380.957,281.962z M352.291,131.42   c2.881-2.881,3.726-7.221,2.136-10.972c-19.546-46.126,14.102-96.704,63.729-97.309l-6.337,6.34   c-19.542,19.542-19.538,51.165,0,70.703c19.493,19.491,51.21,19.494,70.701,0.001l6.342-6.338   c-0.604,49.447-51.011,83.347-97.31,63.728c-3.75-1.591-8.091-0.745-10.973,2.136l-50.39,50.389   c-9.497-1.859-19.645,0.857-27.014,8.224l-21.213,21.213l-18.888-18.888L352.291,131.42z M157.572,391.553   c19.548,46.126-14.102,96.703-63.728,97.309l6.337-6.34c19.493-19.493,19.493-51.21,0-70.703   c-19.542-19.542-51.166-19.537-70.701-0.001l-6.341,6.338c0.602-49.501,51.072-83.322,97.309-63.729   c3.752,1.591,8.092,0.744,10.973-2.136l89.226-89.217l18.888,18.888l-21.213,21.213c-7.344,7.346-10.085,17.542-8.225,27.016   l-50.389,50.388C156.828,383.46,155.983,387.801,157.572,391.553z M479.951,451.667l-28.284,28.284   c-11.725,11.727-30.704,11.724-42.426,0L302.147,372.856c7.161-13.261,5.147-30.206-6.043-41.397   c-13.647-13.647-35.851-13.645-49.497,0c-5.078,5.078-13.054,3.123-15.959-2.459c-0.106-0.246-0.217-0.491-0.343-0.729   c-1.469-3.515-0.876-7.917,2.161-10.954l84.853-84.853c1.89-1.891,4.401-2.932,7.07-2.932c8.84,0,13.376,10.769,7.071,17.073   c-13.646,13.646-13.646,35.851,0.001,49.498c11.19,11.191,28.138,13.204,41.396,6.042l107.095,107.095   C491.678,420.966,491.675,439.945,479.951,451.667z"/><path d="M352.673,366.815c-3.906-3.904-10.236-3.904-14.143,0c-3.905,3.905-3.905,10.237,0,14.142l84.853,84.853   c3.906,3.904,10.235,3.905,14.143,0c3.905-3.905,3.905-10.237,0-14.143L352.673,366.815z"/><path d="M380.957,338.53c-3.906-3.904-10.236-3.904-14.142,0c-3.905,3.905-3.905,10.237,0,14.143l84.852,84.852   c3.906,3.904,10.235,3.906,14.143,0c3.905-3.905,3.905-10.237,0-14.143L380.957,338.53z"/></g></svg>