<?xml version="1.0" encoding="iso-8859-1"?>
<!-- Generator: Adobe Illustrator 19.1.0, SVG Export Plug-In . SVG Version: 6.00 Build 0)  -->
<svg version="1.1" id="Capa_1" xmlns="http://www.w3.org/2000/svg" xmlns:xlink="http://www.w3.org/1999/xlink" x="0px" y="0px"
	 viewBox="0 0 290.499 290.499" style="enable-background:new 0 0 290.499 290.499;" xml:space="preserve">
<g>
	<path d="M287.928,233.982l-29.577-22.938c-1.207-1.207-3.018-1.207-4.829-1.207l-17.505,4.225
		c13.28-20.523,21.127-44.668,21.127-70.624c0-70.624-57.344-128.571-128.571-128.571C57.948,14.867,0,72.211,0,143.439
		S57.344,272.01,128.571,272.01c38.028,0,72.435-16.901,95.976-43.461l0.604,18.109c0,1.811,1.207,3.622,2.414,4.829l29.577,22.938
		c1.207,0.604,2.414,1.207,3.622,1.207c1.207,0,1.811,0,3.018-0.604c1.811-1.207,3.622-3.018,3.018-5.433l-0.604-19.919
		l19.316-4.225c2.414-0.604,4.225-2.414,4.829-4.829C290.946,238.207,289.738,235.189,287.928,233.982z M129.175,259.938
		c-63.984,0-116.499-51.912-116.499-116.499c0-63.984,51.912-116.499,116.499-116.499c63.984,0,116.499,51.912,116.499,116.499
		c0,24.749-7.847,47.082-20.523,65.795l-21.73-16.901c9.658-13.883,15.091-30.785,15.091-48.893
		c0-48.893-39.839-88.733-88.732-88.733c-48.893,0-88.732,39.839-88.732,88.733s39.839,88.732,88.732,88.732
		c26.559,0,50.101-11.469,66.398-30.181l21.73,16.901C195.573,243.64,164.185,259.938,129.175,259.938z M150.905,152.493
		c1.207-3.018,1.811-6.036,1.811-9.054c0-13.28-10.865-23.541-23.541-23.541c-13.28,0-23.541,10.865-23.541,23.541
		c0,13.28,10.865,23.541,23.541,23.541c5.433,0,10.262-1.811,14.487-4.829l13.28,10.262c-7.243,6.64-16.901,11.469-27.767,11.469
		c-22.334,0-39.839-18.109-39.839-39.839s18.109-40.443,39.839-40.443c22.334,0,39.839,18.109,39.839,40.443
		c0,7.244-1.811,13.883-4.829,19.316L150.905,152.493z M132.797,138.61c-2.414-1.811-6.64-1.811-8.451,1.207
		c-1.811,2.414-1.811,6.64,1.207,8.451l7.847,6.036c-1.207,0.604-2.414,0.604-4.225,0.604c-6.64,0-11.469-5.433-11.469-11.469
		c0-6.64,5.433-11.469,11.469-11.469c6.64,0,11.469,5.433,11.469,11.469c0,0.604,0,0.604,0,1.207L132.797,138.61z M129.175,91.527
		c-28.974,0-51.912,23.541-51.912,52.515s23.541,51.912,51.912,51.912c14.487,0,27.767-6.036,37.425-15.694l19.316,15.091
		c-13.883,15.694-34.407,25.352-56.74,25.352c-42.254,0-76.66-34.407-76.66-76.66s34.407-76.66,76.66-76.66
		s76.66,34.407,76.66,76.66c0,15.091-4.829,29.577-12.676,41.65l-19.316-15.091c4.829-7.847,7.243-16.901,7.243-26.559
		C181.086,114.465,157.545,91.527,129.175,91.527z M237.223,243.64l-0.604-9.054l16.901,13.28l0.604,9.054L237.223,243.64z
		 M261.368,237.604l-16.901-13.28l9.054-1.811l16.901,13.28L261.368,237.604z"/>
</g>
<g>
</g>
<g>
</g>
<g>
</g>
<g>
</g>
<g>
</g>
<g>
</g>
<g>
</g>
<g>
</g>
<g>
</g>
<g>
</g>
<g>
</g>
<g>
</g>
<g>
</g>
<g>
</g>
<g>
</g>
</svg>
